<?xml version="1.0" encoding="UTF-8" standalone="no"?>
<svg
   xmlns:dc="http://purl.org/dc/elements/1.1/"
   xmlns:cc="http://creativecommons.org/ns#"
   xmlns:rdf="http://www.w3.org/1999/02/22-rdf-syntax-ns#"
   xmlns:svg="http://www.w3.org/2000/svg"
   xmlns="http://www.w3.org/2000/svg"
   xmlns:sodipodi="http://sodipodi.sourceforge.net/DTD/sodipodi-0.dtd"
   xmlns:inkscape="http://www.inkscape.org/namespaces/inkscape"
   version="1.1"
   id="svg2"
   xml:space="preserve"
   width="326.3537mm"
   height="209.65399mm"
   viewBox="0 0 1233.4628 792.39305"
   sodipodi:docname="LaserCutBottomAndSides.svg"
   inkscape:version="1.0beta2 (370e190, 2020-02-01)"><metadata
     id="metadata8"><rdf:RDF><cc:Work
         rdf:about=""><dc:format>image/svg+xml</dc:format><dc:type
           rdf:resource="http://purl.org/dc/dcmitype/StillImage" /><dc:title></dc:title></cc:Work></rdf:RDF></metadata><defs
     id="defs6"><clipPath
       clipPathUnits="userSpaceOnUse"
       id="clipPath122"><path
         d="M 0,637 H 964 V 0 H 0 Z"
         id="path120"
         inkscape:connector-curvature="0" /></clipPath></defs><sodipodi:namedview
     pagecolor="#ffffff"
     bordercolor="#666666"
     borderopacity="1"
     objecttolerance="10"
     gridtolerance="10"
     guidetolerance="10"
     inkscape:pageopacity="0"
     inkscape:pageshadow="2"
     inkscape:window-width="1920"
     inkscape:window-height="1147"
     id="namedview4"
     showgrid="false"
     inkscape:document-units="mm"
     units="mm"
     fit-margin-top="0"
     fit-margin-left="0"
     fit-margin-right="0"
     fit-margin-bottom="0"
     inkscape:zoom="1.11146"
     inkscape:cx="475.03707"
     inkscape:cy="464.77998"
     inkscape:window-x="-8"
     inkscape:window-y="-8"
     inkscape:window-maximized="1"
     inkscape:current-layer="g10"
     inkscape:document-rotation="0" /><g
     id="g10"
     inkscape:groupmode="layer"
     inkscape:label="LaserCutSides"
     transform="matrix(1.3333333,0,0,-1.3333333,-17.877333,823.49985)"><path
   inkscape:connector-curvature="0"
   id="path14"
   style="fill:none;stroke:#ff0000;stroke-width:1;stroke-linecap:round;stroke-linejoin:round;stroke-miterlimit:10;stroke-dasharray:none;stroke-opacity:1"
   d="m 19.6831,527.4121 -0.503,-0.022 -0.5,-0.068 -0.491,-0.113 -0.481,-0.15 -0.466,-0.202 -0.447,-0.233 -0.425,-0.278 -0.399,-0.315 -0.372,-0.353 -0.341,-0.376 -0.305,-0.413 -0.272,-0.435 -0.232,-0.458 -0.194,-0.473 -0.151,-0.496 -0.108,-0.503 -0.067,-0.51 -0.021,-0.511 v -402.037 l 0.021,-0.516 0.067,-0.512 0.108,-0.502 0.151,-0.492 0.194,-0.478 0.232,-0.457 0.272,-0.434 0.305,-0.408 0.341,-0.381 0.372,-0.35 0.399,-0.312 0.425,-0.277 0.447,-0.239 0.466,-0.197 0.481,-0.156 0.491,-0.112 0.5,-0.066 0.503,-0.023 h 912.548 l 0.5,0.023 0.505,0.066 0.491,0.112 0.478,0.156 0.47,0.197 0.447,0.239 0.418,0.277 0.403,0.312 0.374,0.35 0.338,0.381 0.308,0.408 0.271,0.434 0.228,0.457 0.197,0.478 0.148,0.492 0.109,0.502 0.067,0.512 0.022,0.516 v 402.037 l -0.022,0.511 -0.067,0.51 -0.109,0.503 -0.148,0.496 -0.197,0.473 -0.228,0.458 -0.271,0.435 -0.308,0.413 -0.338,0.376 -0.374,0.353 -0.403,0.315 -0.418,0.278 -0.447,0.233 -0.47,0.202 -0.478,0.15 -0.491,0.113 -0.505,0.068 -0.5,0.022 -913.051,-0.022" /><g
   id="g24"
   transform="translate(908.042,310.5605)"
   style="fill:none;stroke:#ff0000;stroke-opacity:1"><path
     d="M 0,0 C 0,2.502 -2.033,4.535 -4.535,4.535 -7.037,4.535 -9.07,2.502 -9.07,0 c 0,-2.504 2.033,-4.536 4.535,-4.536 C -2.033,-4.536 0,-2.504 0,0 Z"
     style="fill:none;stroke:#ff0000;stroke-width:1;stroke-linecap:round;stroke-linejoin:round;stroke-miterlimit:10;stroke-dasharray:none;stroke-opacity:1"
     id="path26"
     inkscape:connector-curvature="0" /></g><g
   id="g28"
   transform="translate(52.2725,310.8437)"
   style="fill:none;stroke:#ff0000;stroke-opacity:1"><path
     d="m 0,0 c 0,2.507 -2.038,4.543 -4.543,4.543 -2.514,0 -4.544,-2.036 -4.544,-4.543 0,-2.508 2.03,-4.545 4.544,-4.545 C -2.038,-4.545 0,-2.508 0,0 Z"
     style="fill:none;stroke:#ff0000;stroke-width:1;stroke-linecap:round;stroke-linejoin:round;stroke-miterlimit:10;stroke-dasharray:none;stroke-opacity:1"
     id="path30"
     inkscape:connector-curvature="0" /></g><g
   id="g32"
   transform="translate(729.7432,147.5674)"
   style="fill:none;stroke:#ff0000;stroke-opacity:1"><path
     d="M 0,0 C 0,2.504 -2.033,4.535 -4.535,4.535 -7.039,4.535 -9.07,2.504 -9.07,0 c 0,-2.502 2.031,-4.535 4.535,-4.535 C -2.033,-4.535 0,-2.502 0,0 Z"
     style="fill:none;stroke:#ff0000;stroke-width:1;stroke-linecap:round;stroke-linejoin:round;stroke-miterlimit:10;stroke-dasharray:none;stroke-opacity:1"
     id="path34"
     inkscape:connector-curvature="0" /></g><g
   id="g36"
   transform="translate(656.6084,493.1108)"
   style="fill:none;stroke:#ff0000;stroke-opacity:1"><path
     d="M 0,0 C 0,2.502 -2.031,4.535 -4.535,4.535 -7.037,4.535 -9.07,2.502 -9.07,0 c 0,-2.503 2.033,-4.535 4.535,-4.535 C -2.031,-4.535 0,-2.503 0,0 Z"
     style="fill:none;stroke:#ff0000;stroke-width:1;stroke-linecap:round;stroke-linejoin:round;stroke-miterlimit:10;stroke-dasharray:none;stroke-opacity:1"
     id="path38"
     inkscape:connector-curvature="0" /></g><g
   id="g40"
   transform="translate(291.2256,146.7178)"
   style="fill:none;stroke:#ff0000;stroke-opacity:1"><path
     d="m 0,0 c 0,2.502 -2.037,4.535 -4.536,4.535 -2.505,0 -4.536,-2.033 -4.536,-4.535 0,-2.504 2.031,-4.535 4.536,-4.535 C -2.037,-4.535 0,-2.504 0,0 Z"
     style="fill:none;stroke:#ff0000;stroke-width:1;stroke-linecap:round;stroke-linejoin:round;stroke-miterlimit:10;stroke-dasharray:none;stroke-opacity:1"
     id="path42"
     inkscape:connector-curvature="0" /></g><g
   id="g44"
   transform="translate(292.9248,493.1108)"
   style="fill:none;stroke:#ff0000;stroke-opacity:1"><path
     d="m 0,0 c 0,2.502 -2.037,4.535 -4.536,4.535 -2.505,0 -4.536,-2.033 -4.536,-4.535 0,-2.503 2.031,-4.535 4.536,-4.535 C -2.037,-4.535 0,-2.503 0,0 Z"
     style="fill:none;stroke:#ff0000;stroke-width:1;stroke-linecap:round;stroke-linejoin:round;stroke-miterlimit:10;stroke-dasharray:none;stroke-opacity:1"
     id="path46"
     inkscape:connector-curvature="0" /></g><g
   id="g48"
   transform="translate(458.751,310.8437)"
   style="fill:none;stroke:#ff0000;stroke-opacity:1"><path
     d="M 0,0 C 0,2.502 -2.033,4.535 -4.535,4.535 -7.039,4.535 -9.07,2.502 -9.07,0 c 0,-2.503 2.031,-4.536 4.535,-4.536 C -2.033,-4.536 0,-2.503 0,0 Z"
     style="fill:none;stroke:#ff0000;stroke-width:1;stroke-linecap:round;stroke-linejoin:round;stroke-miterlimit:10;stroke-dasharray:none;stroke-opacity:1"
     id="path50"
     inkscape:connector-curvature="0" /></g><g
   id="g52"
   transform="translate(29.7852,445.2505)"
   style="fill:none;stroke:#ff0000;stroke-opacity:1"><path
     d="m 0,0 c 0,-2.505 -2.031,-4.536 -4.535,-4.536 -2.505,0 -4.536,2.031 -4.536,4.536 0,2.505 2.031,4.535 4.536,4.535 C -2.031,4.535 0,2.505 0,0 Z"
     style="fill:none;stroke:#ff0000;stroke-width:1;stroke-linecap:butt;stroke-linejoin:miter;stroke-miterlimit:10;stroke-dasharray:none;stroke-opacity:1"
     id="path54"
     inkscape:connector-curvature="0" /></g><g
   id="g56"
   transform="translate(29.7856,196.043)"
   style="fill:none;stroke:#ff0000;stroke-opacity:1"><path
     d="m 0,0 c 0,-2.505 -2.031,-4.536 -4.535,-4.536 -2.505,0 -4.536,2.031 -4.536,4.536 0,2.505 2.031,4.535 4.536,4.535 C -2.031,4.535 0,2.505 0,0 Z"
     style="fill:none;stroke:#ff0000;stroke-width:1;stroke-linecap:butt;stroke-linejoin:miter;stroke-miterlimit:10;stroke-dasharray:none;stroke-opacity:1"
     id="path58"
     inkscape:connector-curvature="0" /></g><g
   id="g60"
   transform="translate(931.2021,445.2505)"
   style="fill:none;stroke:#ff0000;stroke-opacity:1"><path
     d="m 0,0 c 0,-2.505 -2.03,-4.536 -4.535,-4.536 -2.505,0 -4.536,2.031 -4.536,4.536 0,2.505 2.031,4.535 4.536,4.535 C -2.03,4.535 0,2.505 0,0 Z"
     style="fill:none;stroke:#ff0000;stroke-width:1;stroke-linecap:butt;stroke-linejoin:miter;stroke-miterlimit:10;stroke-dasharray:none;stroke-opacity:1"
     id="path62"
     inkscape:connector-curvature="0" /></g><g
   id="g64"
   transform="translate(931.2031,196.043)"
   style="fill:none;stroke:#ff0000;stroke-opacity:1"><path
     d="m 0,0 c 0,-2.505 -2.031,-4.536 -4.535,-4.536 -2.506,0 -4.536,2.031 -4.536,4.536 0,2.505 2.03,4.535 4.536,4.535 C -2.031,4.535 0,2.505 0,0 Z"
     style="fill:none;stroke:#ff0000;stroke-width:1;stroke-linecap:butt;stroke-linejoin:miter;stroke-miterlimit:10;stroke-dasharray:none;stroke-opacity:1"
     id="path66"
     inkscape:connector-curvature="0" /></g><g
   id="g68"
   transform="translate(938.002,26.6641)"
   style="fill:none;stroke:#ff0000;stroke-opacity:1"><path
     d="M 0,0 C 0,-1.566 -1.269,-2.834 -2.834,-2.834 H -921.26 c -1.565,0 -2.834,1.268 -2.834,2.834 v 83.055 c 0,1.566 1.269,2.835 2.834,2.835 H -2.834 C -1.269,85.89 0,84.621 0,83.055 Z"
     style="fill:none;stroke:#ff0000;stroke-width:1;stroke-linecap:round;stroke-linejoin:round;stroke-miterlimit:10;stroke-dasharray:none;stroke-opacity:1"
     id="path70"
     inkscape:connector-curvature="0" /></g><g
   id="g72"
   transform="translate(13.9082,531.2349)"
   style="fill:none;stroke:#ff0000;stroke-opacity:1"><path
     d="M 0,0 C 0,-1.566 1.269,-2.835 2.834,-2.835 H 921.26 c 1.565,0 2.834,1.269 2.834,2.835 v 83.055 c 0,1.566 -1.269,2.835 -2.834,2.835 H 2.834 C 1.269,85.89 0,84.621 0,83.055 Z"
     style="fill:none;stroke:#ff0000;stroke-width:1;stroke-linecap:round;stroke-linejoin:round;stroke-miterlimit:10;stroke-dasharray:none;stroke-opacity:1"
     id="path74"
     inkscape:connector-curvature="0" /></g><g
   id="g76"
   transform="translate(829.9111,562.5244)"
   style="fill:none;stroke:#ff0000;stroke-opacity:1"><path
     d="m 0,0 c 0,-6.262 5.076,-11.338 11.34,-11.338 6.262,0 11.338,5.076 11.338,11.338 0,6.263 -5.076,11.339 -11.338,11.339 C 5.076,11.339 0,6.263 0,0 Z"
     style="fill:none;stroke:#ff0000;stroke-width:0.938;stroke-linecap:butt;stroke-linejoin:miter;stroke-miterlimit:10;stroke-dasharray:none;stroke-opacity:1"
     id="path78"
     inkscape:connector-curvature="0" /></g><path
   inkscape:connector-curvature="0"
   id="path82"
   style="fill:none;stroke:#ff0000;stroke-width:0.938;stroke-linecap:butt;stroke-linejoin:miter;stroke-miterlimit:10;stroke-dasharray:none;stroke-opacity:1"
   d="m 576.2324,554.9844 c 0,-1.565 1.27,-2.835 2.835,-2.835 h 34.017 c 1.564,0 2.834,1.27 2.834,2.835 v 31.181 c 0,1.566 -1.27,2.835 -2.834,2.835 h -34.017 c -1.565,0 -2.835,-1.269 -2.835,-2.835 z" /><g
   id="g84"
   transform="translate(494.4824,555.9844)"
   style="fill:none;stroke:#ff0000;stroke-opacity:1"><path
     d="M 0,0 C 0,-1.565 1.27,-2.835 2.834,-2.835 H 42.52 c 1.565,0 2.834,1.27 2.834,2.835 v 22.677 c 0,1.566 -1.269,2.835 -2.834,2.835 H 2.834 C 1.27,25.512 0,24.243 0,22.677 Z"
     style="fill:none;stroke:#ff0000;stroke-width:0.938;stroke-linecap:butt;stroke-linejoin:miter;stroke-miterlimit:10;stroke-dasharray:none;stroke-opacity:1"
     id="path86"
     inkscape:connector-curvature="0" /></g><g
   id="g88"
   transform="translate(350.6484,583.6475)"
   style="fill:none;stroke:#ff0000;stroke-opacity:1"><path
     d="m 0,0 c 0,-11.742 9.519,-21.26 21.26,-21.26 11.741,0 21.26,9.518 21.26,21.26 0,11.741 -9.519,21.26 -21.26,21.26 C 9.519,21.26 0,11.741 0,0 Z"
     style="fill:none;stroke:#ff0000;stroke-width:0.938;stroke-linecap:butt;stroke-linejoin:miter;stroke-miterlimit:10;stroke-dasharray:none;stroke-opacity:1"
     id="path90"
     inkscape:connector-curvature="0" /></g><g
   id="g96"
   transform="translate(283.1123,563.875)"
   style="fill:none;stroke:#ff0000;stroke-opacity:1" /><g
   transform="translate(0,6)"
   id="g886"><path
     transform="translate(283.1123,563.875)"
     inkscape:connector-curvature="0"
     id="path98"
     style="fill:none;stroke:#ff0000;stroke-width:1;stroke-linecap:butt;stroke-linejoin:miter;stroke-miterlimit:10;stroke-dasharray:none;stroke-opacity:1"
     d="m 0,0 c 0,-2.662 2.157,-4.819 4.818,-4.819 2.662,0 4.82,2.157 4.82,4.819 0,2.661 -2.158,4.819 -4.82,4.819 C 2.157,4.819 0,2.661 0,0 Z" /><g
     style="fill:none;stroke:#ff0000;stroke-opacity:1"
     transform="translate(646.5264,563.875)"
     id="g104"><path
       inkscape:connector-curvature="0"
       id="path106"
       style="fill:none;stroke:#ff0000;stroke-width:1;stroke-linecap:butt;stroke-linejoin:miter;stroke-miterlimit:10;stroke-dasharray:none;stroke-opacity:1"
       d="M 0,0 C 0,-2.662 2.158,-4.819 4.818,-4.819 7.48,-4.819 9.639,-2.662 9.639,0 9.639,2.661 7.48,4.819 4.818,4.819 2.158,4.819 0,2.661 0,0 Z" /></g></g><text
   transform="matrix(-1,0,0,1,546.3848,545.2793)"
   style="font-variant:normal;font-weight:normal;font-stretch:normal;font-size:10px;font-family:'Arial Rounded MT Bold';-inkscape-font-specification:ArialRoundedMTBold;writing-mode:lr-tb;fill:#000000;fill-opacity:1;fill-rule:nonzero;stroke:none;stroke-opacity:1"
   id="text110"
   y="0"><tspan
     x="0 7.5999999 14.27 21.459999 23.959999 32.290001 35.419998 42.82 45.950001 48.450001 51.580002 157.64999 165.98 169.11 176.50999 179.64 182.14 185.27 -77.489998 -69.889999 -63.220001 -56.029999 -53.529999 -47.241001 -41.201 -33.202999 -27.263 -22.882999 -314.42999 -307.76001 -301.72 -295.67999 -289.64001 -283.70001"
     y="0"
     sodipodi:role="line"
     id="tspan108">USB MIDI InMIDI InUSB Power Phones</tspan></text>

<g
   id="g116"
   style="fill:none;stroke:#ff0000;stroke-opacity:1"><g
     id="g118"
     clip-path="url(#clipPath122)"
     style="fill:none;stroke:#ff0000;stroke-opacity:1"><g
       id="g124"
       transform="translate(291.5239,59.3281)"
       style="fill:none;stroke:#ff0000;stroke-opacity:1"><path
         d="m 0,0 c 0,-2.661 -2.157,-4.819 -4.819,-4.819 -2.662,0 -4.819,2.158 -4.819,4.819 0,2.661 2.157,4.819 4.819,4.819 C -2.157,4.819 0,2.661 0,0 Z"
         style="fill:none;stroke:#ff0000;stroke-width:0.709;stroke-linecap:butt;stroke-linejoin:miter;stroke-miterlimit:10;stroke-dasharray:none;stroke-opacity:1"
         id="path126"
         inkscape:connector-curvature="0" /></g><g
       id="g128"
       transform="translate(730.0264,59.3281)"
       style="fill:none;stroke:#ff0000;stroke-opacity:1"><path
         d="m 0,0 c 0,-2.661 -2.157,-4.819 -4.819,-4.819 -2.662,0 -4.819,2.158 -4.819,4.819 0,2.661 2.157,4.819 4.819,4.819 C -2.157,4.819 0,2.661 0,0 Z"
         style="fill:none;stroke:#ff0000;stroke-width:0.709;stroke-linecap:butt;stroke-linejoin:miter;stroke-miterlimit:10;stroke-dasharray:none;stroke-opacity:1"
         id="path130"
         inkscape:connector-curvature="0" /></g></g></g></g></svg>
